<svg xmlns="http://www.w3.org/2000/svg" xmlns:xlink="http://www.w3.org/1999/xlink" viewBox="2385.901 1381 1254.198 202.439"><defs><style>.a{fill:none;}.b{fill:#3751b8;}.c{opacity:0.17;clip-path:url(#a);}.d{fill:#a984f5;}.d,.e,.f,.g{font-size:33px;font-family:FontAwesome;}.e{fill:#efd07a;}.f{fill:#6ee1a0;}.g{fill:#ef7a7a;}</style><clipPath id="a"><rect class="a" width="1254.198" height="201.378"/></clipPath></defs><g transform="translate(2053 1194)"><rect class="b" width="1254" height="201" transform="translate(333 187)"/><g class="c" transform="translate(332.901 188.061)"><g transform="translate(-354.901 -199.061)"><text class="d" transform="translate(357.401 240.307) rotate(30)"><tspan x="0" y="0"></tspan></text><text class="e" transform="translate(439.961 223.31) rotate(30)"><tspan x="0" y="0"></tspan></text><text class="f" transform="translate(390.425 317.109) rotate(30)"><tspan x="0" y="0"></tspan></text><text class="g" transform="translate(411.961 271.807) rotate(30)"><tspan x="0" y="0"></tspan></text><text class="g" transform="translate(470.85 305.807) rotate(30)"><tspan x="0" y="0"></tspan></text></g><g transform="translate(-199.901 -199.061)"><text class="d" transform="translate(357.401 240.307) rotate(30)"><tspan x="0" y="0"></tspan></text><text class="e" transform="translate(439.961 223.31) rotate(30)"><tspan x="0" y="0"></tspan></text><text class="f" transform="translate(390.425 317.109) rotate(30)"><tspan x="0" y="0"></tspan></text><text class="g" transform="translate(411.961 271.807) rotate(30)"><tspan x="0" y="0"></tspan></text><text class="g" transform="translate(470.85 305.807) rotate(30)"><tspan x="0" y="0"></tspan></text></g><g transform="translate(-44.901 -199.061)"><text class="d" transform="translate(357.401 240.307) rotate(30)"><tspan x="0" y="0"></tspan></text><text class="e" transform="translate(439.961 223.31) rotate(30)"><tspan x="0" y="0"></tspan></text><text class="f" transform="translate(390.425 317.109) rotate(30)"><tspan x="0" y="0"></tspan></text><text class="g" transform="translate(411.961 271.807) rotate(30)"><tspan x="0" y="0"></tspan></text><text class="g" transform="translate(470.85 305.807) rotate(30)"><tspan x="0" y="0"></tspan></text></g><g transform="translate(110.099 -199.061)"><text class="d" transform="translate(357.401 240.307) rotate(30)"><tspan x="0" y="0"></tspan></text><text class="e" transform="translate(439.961 223.31) rotate(30)"><tspan x="0" y="0"></tspan></text><text class="f" transform="translate(390.425 317.109) rotate(30)"><tspan x="0" y="0"></tspan></text><text class="g" transform="translate(411.961 271.807) rotate(30)"><tspan x="0" y="0"></tspan></text><text class="g" transform="translate(470.85 305.807) rotate(30)"><tspan x="0" y="0"></tspan></text></g><g transform="translate(265.099 -199.061)"><text class="d" transform="translate(357.401 240.307) rotate(30)"><tspan x="0" y="0"></tspan></text><text class="e" transform="translate(439.961 223.31) rotate(30)"><tspan x="0" y="0"></tspan></text><text class="f" transform="translate(390.425 317.109) rotate(30)"><tspan x="0" y="0"></tspan></text><text class="g" transform="translate(411.961 271.807) rotate(30)"><tspan x="0" y="0"></tspan></text><text class="g" transform="translate(470.85 305.807) rotate(30)"><tspan x="0" y="0"></tspan></text></g><g transform="translate(420.099 -199.061)"><text class="d" transform="translate(357.401 240.307) rotate(30)"><tspan x="0" y="0"></tspan></text><text class="e" transform="translate(439.961 223.31) rotate(30)"><tspan x="0" y="0"></tspan></text><text class="f" transform="translate(390.425 317.109) rotate(30)"><tspan x="0" y="0"></tspan></text><text class="g" transform="translate(411.961 271.807) rotate(30)"><tspan x="0" y="0"></tspan></text><text class="g" transform="translate(470.85 305.807) rotate(30)"><tspan x="0" y="0"></tspan></text></g><g transform="translate(575.099 -199.061)"><text class="d" transform="translate(357.401 240.307) rotate(30)"><tspan x="0" y="0"></tspan></text><text class="e" transform="translate(439.961 223.31) rotate(30)"><tspan x="0" y="0"></tspan></text><text class="f" transform="translate(390.425 317.109) rotate(30)"><tspan x="0" y="0"></tspan></text><text class="g" transform="translate(411.961 271.807) rotate(30)"><tspan x="0" y="0"></tspan></text><text class="g" transform="translate(470.85 305.807) rotate(30)"><tspan x="0" y="0"></tspan></text></g><g transform="translate(730.099 -199.061)"><text class="d" transform="translate(357.401 240.307) rotate(30)"><tspan x="0" y="0"></tspan></text><text class="e" transform="translate(439.961 223.31) rotate(30)"><tspan x="0" y="0"></tspan></text><text class="f" transform="translate(390.425 317.109) rotate(30)"><tspan x="0" y="0"></tspan></text><text class="g" transform="translate(411.961 271.807) rotate(30)"><tspan x="0" y="0"></tspan></text><text class="g" transform="translate(470.85 305.807) rotate(30)"><tspan x="0" y="0"></tspan></text></g><g transform="translate(885.099 -199.061)"><text class="d" transform="translate(357.401 240.307) rotate(30)"><tspan x="0" y="0"></tspan></text><text class="e" transform="translate(439.961 223.31) rotate(30)"><tspan x="0" y="0"></tspan></text><text class="f" transform="translate(390.425 317.109) rotate(30)"><tspan x="0" y="0"></tspan></text><text class="g" transform="translate(411.961 271.807) rotate(30)"><tspan x="0" y="0"></tspan></text><text class="g" transform="translate(470.85 305.807) rotate(30)"><tspan x="0" y="0"></tspan></text></g><g transform="translate(-354.901 -62.061)"><text class="d" transform="translate(357.401 240.307) rotate(30)"><tspan x="0" y="0"></tspan></text><text class="e" transform="translate(439.961 223.31) rotate(30)"><tspan x="0" y="0"></tspan></text><text class="f" transform="translate(390.425 317.109) rotate(30)"><tspan x="0" y="0"></tspan></text><text class="g" transform="translate(411.961 271.807) rotate(30)"><tspan x="0" y="0"></tspan></text><text class="g" transform="translate(470.85 305.807) rotate(30)"><tspan x="0" y="0"></tspan></text></g><g transform="translate(-199.901 -62.061)"><text class="d" transform="translate(357.401 240.307) rotate(30)"><tspan x="0" y="0"></tspan></text><text class="e" transform="translate(439.961 223.31) rotate(30)"><tspan x="0" y="0"></tspan></text><text class="f" transform="translate(390.425 317.109) rotate(30)"><tspan x="0" y="0"></tspan></text><text class="g" transform="translate(411.961 271.807) rotate(30)"><tspan x="0" y="0"></tspan></text><text class="g" transform="translate(470.85 305.807) rotate(30)"><tspan x="0" y="0"></tspan></text></g><g transform="translate(-44.901 -62.061)"><text class="d" transform="translate(357.401 240.307) rotate(30)"><tspan x="0" y="0"></tspan></text><text class="e" transform="translate(439.961 223.31) rotate(30)"><tspan x="0" y="0"></tspan></text><text class="f" transform="translate(390.425 317.109) rotate(30)"><tspan x="0" y="0"></tspan></text><text class="g" transform="translate(411.961 271.807) rotate(30)"><tspan x="0" y="0"></tspan></text><text class="g" transform="translate(470.85 305.807) rotate(30)"><tspan x="0" y="0"></tspan></text></g><g transform="translate(110.099 -62.061)"><text class="d" transform="translate(357.401 240.307) rotate(30)"><tspan x="0" y="0"></tspan></text><text class="e" transform="translate(439.961 223.31) rotate(30)"><tspan x="0" y="0"></tspan></text><text class="f" transform="translate(390.425 317.109) rotate(30)"><tspan x="0" y="0"></tspan></text><text class="g" transform="translate(411.961 271.807) rotate(30)"><tspan x="0" y="0"></tspan></text><text class="g" transform="translate(470.85 305.807) rotate(30)"><tspan x="0" y="0"></tspan></text></g><g transform="translate(265.099 -62.061)"><text class="d" transform="translate(357.401 240.307) rotate(30)"><tspan x="0" y="0"></tspan></text><text class="e" transform="translate(439.961 223.31) rotate(30)"><tspan x="0" y="0"></tspan></text><text class="f" transform="translate(390.425 317.109) rotate(30)"><tspan x="0" y="0"></tspan></text><text class="g" transform="translate(411.961 271.807) rotate(30)"><tspan x="0" y="0"></tspan></text><text class="g" transform="translate(470.85 305.807) rotate(30)"><tspan x="0" y="0"></tspan></text></g><g transform="translate(420.099 -62.061)"><text class="d" transform="translate(357.401 240.307) rotate(30)"><tspan x="0" y="0"></tspan></text><text class="e" transform="translate(439.961 223.31) rotate(30)"><tspan x="0" y="0"></tspan></text><text class="f" transform="translate(390.425 317.109) rotate(30)"><tspan x="0" y="0"></tspan></text><text class="g" transform="translate(411.961 271.807) rotate(30)"><tspan x="0" y="0"></tspan></text><text class="g" transform="translate(470.85 305.807) rotate(30)"><tspan x="0" y="0"></tspan></text></g><g transform="translate(575.099 -62.061)"><text class="d" transform="translate(357.401 240.307) rotate(30)"><tspan x="0" y="0"></tspan></text><text class="e" transform="translate(439.961 223.31) rotate(30)"><tspan x="0" y="0"></tspan></text><text class="f" transform="translate(390.425 317.109) rotate(30)"><tspan x="0" y="0"></tspan></text><text class="g" transform="translate(411.961 271.807) rotate(30)"><tspan x="0" y="0"></tspan></text><text class="g" transform="translate(470.85 305.807) rotate(30)"><tspan x="0" y="0"></tspan></text></g><g transform="translate(730.099 -62.061)"><text class="d" transform="translate(357.401 240.307) rotate(30)"><tspan x="0" y="0"></tspan></text><text class="e" transform="translate(439.961 223.31) rotate(30)"><tspan x="0" y="0"></tspan></text><text class="f" transform="translate(390.425 317.109) rotate(30)"><tspan x="0" y="0"></tspan></text><text class="g" transform="translate(411.961 271.807) rotate(30)"><tspan x="0" y="0"></tspan></text><text class="g" transform="translate(470.85 305.807) rotate(30)"><tspan x="0" y="0"></tspan></text></g><g transform="translate(885.099 -62.061)"><text class="d" transform="translate(357.401 240.307) rotate(30)"><tspan x="0" y="0"></tspan></text><text class="e" transform="translate(439.961 223.31) rotate(30)"><tspan x="0" y="0"></tspan></text><text class="f" transform="translate(390.425 317.109) rotate(30)"><tspan x="0" y="0"></tspan></text><text class="g" transform="translate(411.961 271.807) rotate(30)"><tspan x="0" y="0"></tspan></text><text class="g" transform="translate(470.85 305.807) rotate(30)"><tspan x="0" y="0"></tspan></text></g></g></g></svg>